<svg width="13" height="11" viewBox="0 0 13 11" fill="none" xmlns="http://www.w3.org/2000/svg">
<path fill-rule="evenodd" clip-rule="evenodd" d="M6.71975 0.469712C6.8604 0.329109 7.05113 0.250122 7.25 0.250122C7.44887 0.250122 7.6396 0.329109 7.78025 0.469712L12.2803 4.96971C12.4209 5.11036 12.4998 5.30109 12.4998 5.49996C12.4998 5.69883 12.4209 5.88957 12.2803 6.03021L7.78025 10.5302C7.6388 10.6668 7.44935 10.7424 7.2527 10.7407C7.05605 10.739 6.86794 10.6601 6.72889 10.5211C6.58983 10.382 6.51095 10.1939 6.50924 9.99726C6.50754 9.80062 6.58313 9.61116 6.71975 9.46971L9.9395 6.24996H1.25C1.05109 6.24996 0.860322 6.17094 0.71967 6.03029C0.579018 5.88964 0.5 5.69887 0.5 5.49996C0.5 5.30105 0.579018 5.11028 0.71967 4.96963C0.860322 4.82898 1.05109 4.74996 1.25 4.74996H9.9395L6.71975 1.53021C6.57915 1.38957 6.50016 1.19883 6.50016 0.999962C6.50016 0.801089 6.57915 0.610358 6.71975 0.469712Z" fill="white"/>
</svg>
